<svg width="16" height="16" viewBox="0 0 16 16" fill="none" xmlns="http://www.w3.org/2000/svg">
<g clip-path="url(#clip0_1035927_89)">
<path d="M15.996 16V15.9994H16V10.1314C16 7.26071 15.382 5.04938 12.026 5.04938C10.4127 5.04938 9.33 5.93471 8.888 6.77404H8.84133V5.31738H5.65933V15.9994H8.97267V10.71C8.97267 9.31738 9.23667 7.97071 10.9613 7.97071C12.6607 7.97071 12.686 9.56004 12.686 10.7994V16H15.996Z" fill="#F4F4FD"/>
<path d="M0.264 5.31799H3.58133V16H0.264V5.31799Z" fill="#F4F4FD"/>
<path d="M1.92133 0C0.860667 0 0 0.860667 0 1.92133C0 2.982 0.860667 3.86067 1.92133 3.86067C2.982 3.86067 3.84267 2.982 3.84267 1.92133C3.842 0.860667 2.98133 0 1.92133 0V0Z" fill="#F4F4FD"/>
</g>
<defs>
<clipPath id="clip0_1035927_89">
<rect width="16" height="16" fill="white"/>
</clipPath>
</defs>
</svg>
